<svg width="69" height="69" viewBox="0 0 69 69" fill="none" xmlns="http://www.w3.org/2000/svg">
<path d="M34.5 0C15.525 0 0 15.525 0 34.5C0 53.475 15.525 69 34.5 69C53.475 69 69 53.475 69 34.5C69 15.525 53.475 0 34.5 0ZM34.5 62.1C19.32 62.1 6.9 49.68 6.9 34.5C6.9 19.32 19.32 6.9 34.5 6.9C49.68 6.9 62.1 19.32 62.1 34.5C62.1 49.68 49.68 62.1 34.5 62.1Z" fill="#B88364"/>
<path d="M34.5 13.7999C28.6348 13.7999 24.15 18.2847 24.15 24.1499H31.05C31.05 22.0798 32.4299 20.6999 34.5 20.6999C36.5701 20.6999 37.95 22.0798 37.95 24.1499C37.95 25.1847 37.6049 26.22 36.5701 26.9097C33.1201 29.3249 31.05 33.8097 31.05 38.6396V41.3998H37.95V38.6401C37.95 36.2248 38.9848 33.8102 40.7098 32.4303C43.125 30.7048 44.85 27.5999 44.85 24.1499C44.85 18.2847 40.3653 13.7999 34.5 13.7999Z" fill="#B88364"/>
<path d="M31.0499 48.2999H37.9499V55.1999H31.0499V48.2999Z" fill="#B88364"/>
</svg>
